<?xml version="1.0" encoding="UTF-8"?> <svg xmlns="http://www.w3.org/2000/svg" viewBox="0 0 2069.29 226.77"><path d="m2063.51 0h-1213.12v219.77 7h1218.9v-226.77z" fill="#c3a36a"></path><path d="m846.36 0h-846.36v219.77 7h850.39v-226.77z" fill="#363636"></path><g fill="#fff"><path d="m907.06 169.77v-112.56h28.22q17.09 0 27.13 8.46t10 22.88a28.16 28.16 0 0 1 -19 27.71 49.84 49.84 0 0 1 10.59 9.68q5.16 6.12 14.51 21.35 5.88 9.59 9.43 14.42l6 8.06h-19.23l-4.91-7.42q-.24-.4-1-1.37l-3.14-4.43-5-8.22-5.39-8.79a87.67 87.67 0 0 0 -9.15-11 34.86 34.86 0 0 0 -7.51-5.91q-3.35-1.81-11.26-1.81h-4.2v49zm21-98.85h-4.84v35.53h6.13q12.25 0 16.81-2.09a15.76 15.76 0 0 0 7.1-6.32 18.33 18.33 0 0 0 2.54-9.63 17.2 17.2 0 0 0 -2.82-9.63 15.1 15.1 0 0 0 -7.98-6.1q-5.12-1.77-17-1.77z"></path><path d="m1006 57.21h63.86v14.34h-47.73v34.32h46.12v14.43h-46.12v35h49.26v14.3h-65.39z"></path><path d="m1185.29 143.66v17.72q-17.74 9.67-41 9.67-18.87 0-32-7.57a55.78 55.78 0 0 1 -20.8-20.87 56.63 56.63 0 0 1 -7.66-28.76q0-24.57 17.54-41.33t43.26-16.76q17.73 0 39.43 9.27v17.32q-19.75-11.28-38.62-11.28-19.35 0-32.13 12.21t-12.78 30.58q0 18.53 12.58 30.45t32.17 11.92q20.49 0 40.01-12.57z"></path><path d="m1260.06 55.6q26.1 0 43.47 16.52t17.36 41.41q0 24.9-17.52 41.21t-44.19 16.31q-25.46 0-42.42-16.31t-17-40.89q0-25.22 17.08-41.73t43.22-16.52zm.65 15.31q-19.33 0-31.78 12.08t-12.44 30.86q0 18.21 12.48 30.29t31.25 12.08q18.85 0 31.45-12.33t12.61-30.7a40.23 40.23 0 0 0 -12.61-30.09q-12.6-12.19-30.97-12.19z"></path><path d="m1401.27 114.34h37.81v47.66a103.09 103.09 0 0 1 -41.28 9q-28 0-44.71-16.31t-16.73-40.24q0-25.22 17.34-42t43.46-16.76a77.08 77.08 0 0 1 18.06 2.05 148.18 148.18 0 0 1 21.61 7.53v16.52q-20.16-11.68-40-11.68-18.46 0-31.12 12.57t-12.66 30.86q0 19.17 12.66 31.34t32.57 12.12q9.68 0 23.14-4.43l1.53-.48v-23.41h-21.69z"></path><path d="m1551.79 57.21h15.32v112.56h-13.87l-75.3-86.68v86.68h-15.16v-112.56h13.06l75.95 87.42z"></path><path d="m1591 57.21h16.13v112.56h-16.13z"></path><path d="m1622.24 57.05h94.09v14.34h-39.26v98.37h-16.21v-98.37h-38.62z"></path><path d="m1731.4 57.21h16.13v112.56h-16.13z"></path><path d="m1827.46 55.6q26.1 0 43.47 16.52t17.36 41.41q0 24.9-17.52 41.21t-44.19 16.31q-25.46 0-42.42-16.31t-17-40.89q0-25.22 17.08-41.73t43.22-16.52zm.65 15.31q-19.33 0-31.78 12.08t-12.44 30.86q0 18.21 12.48 30.29t31.25 12.08q18.85 0 31.45-12.33t12.61-30.7a40.23 40.23 0 0 0 -12.61-30.09q-12.61-12.19-30.97-12.19z"></path><path d="m1997.29 57.21h15.32v112.56h-13.87l-75.3-86.68v86.68h-15.16v-112.56h13.06l75.95 87.42z"></path><path d="m105.07 56.57h11.32l50.46 113.2h-16.49l-15-33.35h-48l-14.07 33.35h-16.56zm23.67 65.5-18.16-40.77-16.83 40.77z"></path><path d="m179.34 169.6v-112.39h37.94q23 0 36.33 6.89a52 52 0 0 1 21.27 20.26 56.35 56.35 0 0 1 7.89 29.17 55.5 55.5 0 0 1 -35.85 51.88 56.8 56.8 0 0 1 -11.68 3.34q-5.32.85-20.3.85zm36.25-98h-20.14v83.71h20.62q12.08 0 18.77-1.65a44.13 44.13 0 0 0 11.16-4.24 38.21 38.21 0 0 0 8.18-6.24q11.92-12.08 11.92-30.53 0-18.13-12.25-29.57a39.11 39.11 0 0 0 -10.35-7 43.36 43.36 0 0 0 -11.08-3.63 112.71 112.71 0 0 0 -16.83-.9z"></path><path d="m329.75 56.57h11.32l50.46 113.2h-16.53l-15-33.35h-48l-14 33.35h-16.59zm23.67 65.5-18.15-40.77-16.84 40.77z"></path><path d="m403 169.77v-112.72h35.69q16.11 0 25.7 8.7t9.61 23.37a31.26 31.26 0 0 1 -4.91 17.4 28.11 28.11 0 0 1 -13.45 11q-8.54 3.42-24.49 3.42h-11.98v48.82zm32.87-98.37h-16.7v35.2h17.64q9.83 0 15.15-4.63t5.32-13.25q-.01-17.33-21.43-17.33z"></path><path d="m478.38 57.05h94v14.34h-39.22v98.37h-16.16v-98.37h-38.62z"></path><path d="m587.78 57.21h16.11v112.56h-16.11z"></path><path d="m700.15 57.21h16l-47.58 113h-3.57l-48.5-113h16.22l33.85 79z"></path><path d="m728.52 57.21h63.8v14.34h-47.69v34.32h46.08v14.43h-46.08v35h49.22v14.3h-65.33z"></path></g></svg> 